<svg xmlns="http://www.w3.org/2000/svg" width="201.147" height="70.852" viewBox="0 0 201.147 70.852"><path fill="#846AB5" d="M35.427 0C15.861 0 0 15.861 0 35.425 0 54.99 15.861 70.852 35.427 70.852c19.565 0 35.425-15.861 35.425-35.427C70.852 15.861 54.992 0 35.427 0m31.079 35.425c0 .418-.015.832-.031 1.245a9.204 9.204 0 0 0-6.854-3.103v-.004H37.288V4.406c16.297.964 29.218 14.48 29.218 31.019M37.288 48.314V37.288h22.299a5.521 5.521 0 0 1 5.515 5.515 5.52 5.52 0 0 1-5.481 5.514v-.002H37.288zM11.35 33.564a5.518 5.518 0 0 1-5.458-5.511 5.521 5.521 0 0 1 5.515-5.515v-.001h22.158v11.027H11.35zM33.565 4.406v14.409H11.232v.01a9.206 9.206 0 0 0-2.29.335c5.165-8.39 14.202-14.137 24.623-14.754M4.347 35.425c0-.465.015-.929.035-1.391a9.214 9.214 0 0 0 6.85 3.245v.008h.142l.033.002v-.002h22.158v29.157C17.267 65.482 4.347 51.966 4.347 35.425m32.941 31.02V52.038h22.299v.002l.032-.002h.002a9.156 9.156 0 0 0 2.259-.299c-5.169 8.365-14.192 14.093-24.592 14.706"/><path fill="#2B262D" d="M110.354 22.138c-.713-.795-1.691-1.458-2.909-1.971-1.213-.51-2.767-.768-4.619-.768H92.507v29.037h4.558v-12.48h5.761c1.853 0 3.407-.258 4.619-.768 1.217-.51 2.195-1.174 2.909-1.971a6.835 6.835 0 0 0 1.498-2.704c.274-.976.412-1.93.412-2.837 0-.906-.138-1.86-.412-2.837a6.835 6.835 0 0 0-1.498-2.701m-13.289 1.338h4.681c.725 0 1.453.059 2.162.175a5.68 5.68 0 0 1 1.844.619c.513.288.932.706 1.244 1.246.313.544.471 1.271.471 2.161 0 .891-.158 1.618-.471 2.161-.312.541-.731.96-1.244 1.246a5.644 5.644 0 0 1-1.843.62 13.57 13.57 0 0 1-2.163.175h-4.681v-8.403zm40.125 11.137a8.223 8.223 0 0 0 2.299-1.798 7.805 7.805 0 0 0 1.446-2.39 7.702 7.702 0 0 0 .503-2.748c0-.906-.138-1.86-.412-2.837a6.832 6.832 0 0 0-1.498-2.702c-.713-.795-1.691-1.458-2.909-1.971-1.213-.51-2.767-.768-4.619-.768h-10.319v29.037h4.558v-12.48h3.714l7.2 12.48h5.652l-8.087-12.995a7.863 7.863 0 0 0 2.472-.828m-10.951-11.137h4.681c.725 0 1.453.059 2.162.175a5.68 5.68 0 0 1 1.844.619c.513.288.932.706 1.244 1.246.313.544.471 1.271.471 2.161 0 .891-.158 1.618-.471 2.161-.312.541-.731.96-1.244 1.246a5.644 5.644 0 0 1-1.843.62 13.57 13.57 0 0 1-2.163.175h-4.681v-8.403zm40.398 9.908a14.854 14.854 0 0 0-3.444-1.374 30.875 30.875 0 0 1-3.32-1.067c-.983-.383-1.813-.884-2.467-1.49-.623-.573-.925-1.39-.925-2.496 0-.386.081-.818.24-1.284.155-.455.431-.887.819-1.287.389-.401.918-.736 1.574-.995.662-.263 1.513-.396 2.528-.396 1.056 0 2.01.216 2.836.641.819.422 1.459.985 1.902 1.675l.23.357 3.685-3.354-.215-.263c-1.107-1.356-2.417-2.271-3.894-2.718a15.77 15.77 0 0 0-4.544-.655c-1.749 0-3.27.272-4.521.81-1.249.534-2.289 1.212-3.092 2.015-.807.807-1.406 1.71-1.781 2.685-.375.97-.564 1.901-.564 2.769 0 1.903.369 3.441 1.097 4.573.72 1.122 1.626 2.028 2.691 2.69 1.05.655 2.21 1.175 3.448 1.54 1.187.353 2.309.728 3.336 1.112.984.37 1.818.835 2.478 1.381.612.506.91 1.234.91 2.225 0 .703-.159 1.328-.471 1.856a4.586 4.586 0 0 1-1.243 1.373 5.636 5.636 0 0 1-1.71.846c-1.784.534-3.458.306-5.049-.423-1.014-.463-1.859-1.192-2.51-2.172l-.225-.338-3.716 3.199.191.266c.997 1.385 2.356 2.423 4.04 3.085a14.38 14.38 0 0 0 5.291.984c1.392 0 2.721-.208 3.954-.618 1.238-.413 2.328-1.013 3.238-1.786a8.545 8.545 0 0 0 2.192-2.88c.541-1.135.815-2.425.815-3.834 0-1.774-.372-3.196-1.107-4.227a8.232 8.232 0 0 0-2.697-2.425m11.714-13.985v4.317h9.119v24.721h4.558V23.716h9.119v-4.317z"/></svg>